<?xml version="1.0" encoding="UTF-8"?>
<svg width="24px" height="24px" viewBox="0 0 24 24" stroke-width="1.5" fill="none" xmlns="http://www.w3.org/2000/svg" color="#000000">
  <path d="M5 18L3.13 4.913a.996.996 0 01.774-1.114l7.662-1.703a2 2 0 01.868 0L20.096 3.8c.51.113.848.596.774 1.114L19 18c-.07.495-.5.934-.999.934h-3.867c-.3 0-.587-.128-.79-.35L12 17.07l-1.344 1.514c-.203.222-.49.35-.79.35H6c-.5 0-.93-.44-.999-.934z" stroke="#000000" stroke-width="1.5" stroke-linecap="round" stroke-linejoin="round"></path>
  <path d="M16 9.4l-2.066 2.066-2-2" stroke="#000000" stroke-width="1.5" stroke-linecap="round" stroke-linejoin="round"></path>
</svg>
